<svg xmlns="http://www.w3.org/2000/svg" viewBox="0 0 220 200">
  <!-- 고기 · carne -->
  <use href="#kw-brillo" transform="translate(30 40) scale(10)" fill="#FFFFFF"/>
  <use href="#kw-brillo" transform="translate(190 34) scale(8)" fill="#E8B84B"/>
  <use href="#kw-brillo" transform="translate(200 128) scale(6)" fill="#FFFFFF"/>
  <circle cx="22" cy="110" r="3" fill="#FFFFFF"/>
  <circle cx="204" cy="66" r="2.5" fill="#CFC8FF"/>
  <circle cx="26" cy="150" r="2.5" fill="#E8B84B"/>
  <ellipse class="kw-suelo" cx="110" cy="188" rx="76" ry="7" fill="#D2CBFA"/>
  <!-- plato blanco -->
  <ellipse cx="110" cy="164" rx="76" ry="18" fill="#FFFFFF" stroke="#003478" stroke-width="3"/>
  <ellipse cx="110" cy="161" rx="56" ry="10" fill="#D6E3FF"/>
  <!-- vapor -->
  <path d="M64 70 Q58 62 64 54 Q70 46 64 38" fill="none" stroke="#FFFFFF" stroke-width="4.5" stroke-linecap="round"/>
  <path d="M82 62 Q76 54 82 46" fill="none" stroke="#FFFFFF" stroke-width="4.5" stroke-linecap="round"/>
  <!-- hueso: trazo doble + dos nudos -->
  <path d="M128 104 L165 82.5" fill="none" stroke="#003478" stroke-width="21" stroke-linecap="round"/>
  <circle cx="174" cy="86.9" r="9.5" fill="#FFFDF8" stroke="#003478" stroke-width="3"/>
  <circle cx="166" cy="73.1" r="9.5" fill="#FFFDF8" stroke="#003478" stroke-width="3"/>
  <path d="M128 104 L165 82.5" fill="none" stroke="#FFFDF8" stroke-width="15" stroke-linecap="round"/>
  <!-- pierna de carne cocida -->
  <g transform="rotate(-30 98 122)">
    <ellipse cx="98" cy="122" rx="54" ry="40" fill="#C99A5E"/>
    <path d="M49.8 140 Q62 148 74 142 T98 142 T122 142 T146.2 140 A54 40 0 0 1 49.8 140 Z" fill="#8C6448"/>
    <ellipse cx="72" cy="104" rx="15" ry="6" fill="#E9C48E"/>
    <ellipse cx="98" cy="122" rx="54" ry="40" fill="none" stroke="#003478" stroke-width="3"/>
  </g>
  <use href="#kw-cara" transform="translate(96 120)"/>
</svg>
