<svg xmlns="http://www.w3.org/2000/svg" viewBox="0 0 425 490" width="425" height="490" fill="none">
<!-- B2S1 L4 · Adiós, romanización: cuatro íconos (1 한 vs ABC con menos · 2 globo e·o · 3 parlante y ? · 4 chat y hoja de examen) -->
<rect x="12" y="14" width="195" height="222" rx="26" fill="#F1F0FE"/>
<rect x="218" y="14" width="195" height="222" rx="26" fill="#F1F0FE"/>
<rect x="12" y="254" width="195" height="222" rx="26" fill="#F1F0FE"/>
<rect x="218" y="254" width="195" height="222" rx="26" fill="#F1F0FE"/><g transform="translate(5 6)" opacity="0.28" fill="#14142B" stroke="#14142B" stroke-width="18" stroke-linejoin="round" stroke-linecap="round"><rect x="50" y="62" width="104" height="104" rx="20"/><rect x="116" y="162" width="76" height="48" rx="12"/><circle cx="188" cy="160" r="15"/></g>
<g fill="#14142B" stroke="#14142B" stroke-width="18" stroke-linejoin="round" stroke-linecap="round"><rect x="50" y="62" width="104" height="104" rx="20"/><rect x="116" y="162" width="76" height="48" rx="12"/><circle cx="188" cy="160" r="15"/></g>
<g fill="#FFFFFF" stroke="#FFFFFF" stroke-width="12" stroke-linejoin="round" stroke-linecap="round"><rect x="50" y="62" width="104" height="104" rx="20"/><rect x="116" y="162" width="76" height="48" rx="12"/><circle cx="188" cy="160" r="15"/></g><rect x="50" y="62" width="104" height="104" rx="20" fill="#FFFFFF" stroke="#14142B" stroke-width="4"/>
<text x="102" y="139" font-family="Malgun Gothic" font-size="74" font-weight="bold" fill="#4236F6" text-anchor="middle">한</text>
<rect x="116" y="162" width="76" height="48" rx="12" fill="#E3E6F2" stroke="#14142B" stroke-width="3.5"/>
<text x="154" y="194" font-family="Arial" font-size="22" font-weight="bold" fill="#8A8DA0" text-anchor="middle">ABC</text>
<circle cx="188" cy="160" r="15" fill="#8A8DA0" stroke="#14142B" stroke-width="3.5"/>
<path d="M180 160 L196 160" stroke="#FFFFFF" stroke-width="5" stroke-linecap="round"/><g transform="translate(5 6)" opacity="0.28" fill="#14142B" stroke="#14142B" stroke-width="18" stroke-linejoin="round" stroke-linecap="round"><path d="M238 230 L238 224 Q238 200 262 198 L306 198 Q330 200 330 224 L330 230 Z"/><circle cx="284" cy="166" r="36"/><rect x="300" y="46" width="102" height="66" rx="24"/><path d="M318 108 L304 134 L338 110 Z"/></g>
<g fill="#14142B" stroke="#14142B" stroke-width="18" stroke-linejoin="round" stroke-linecap="round"><path d="M238 230 L238 224 Q238 200 262 198 L306 198 Q330 200 330 224 L330 230 Z"/><circle cx="284" cy="166" r="36"/><rect x="300" y="46" width="102" height="66" rx="24"/><path d="M318 108 L304 134 L338 110 Z"/></g>
<g fill="#FFFFFF" stroke="#FFFFFF" stroke-width="12" stroke-linejoin="round" stroke-linecap="round"><path d="M238 230 L238 224 Q238 200 262 198 L306 198 Q330 200 330 224 L330 230 Z"/><circle cx="284" cy="166" r="36"/><rect x="300" y="46" width="102" height="66" rx="24"/><path d="M318 108 L304 134 L338 110 Z"/></g><path d="M238 230 L238 224 Q238 200 262 198 L306 198 Q330 200 330 224 L330 230 Z" fill="#7FD1AE" stroke="#14142B" stroke-width="4" stroke-linejoin="round"/>
<circle cx="284" cy="166" r="36" fill="#F3C39A" stroke="#14142B" stroke-width="4"/>
<path d="M247 168 C244 122 324 122 321 168 C314 150 296 144 284 150 C272 144 254 150 247 168 Z" fill="#74461F" stroke="#14142B" stroke-width="4" stroke-linejoin="round"/>
<ellipse cx="275.32" cy="172" rx="4.03" ry="5.27" fill="#14142B"/><ellipse cx="292.68" cy="172" rx="4.03" ry="5.27" fill="#14142B"/>
<circle cx="276.68" cy="169.89" r="1.49" fill="#FFFFFF"/><circle cx="294.04" cy="169.89" r="1.49" fill="#FFFFFF"/><ellipse cx="267.88" cy="180.68" rx="4.34" ry="2.79" fill="#FFB98A"/><ellipse cx="300.12" cy="180.68" rx="4.34" ry="2.79" fill="#FFB98A"/><ellipse cx="284" cy="182.54" rx="3.1" ry="3.72" fill="#14142B"/>
<path d="M267 160 L277 156" stroke="#14142B" stroke-width="3" stroke-linecap="round"/>
<path d="M301 160 L291 156" stroke="#14142B" stroke-width="3" stroke-linecap="round"/>
<path d="M326 140 Q318 152 322 158 Q328 164 334 158 Q338 152 326 140 Z" fill="#9FD3F5" stroke="#14142B" stroke-width="3" stroke-linejoin="round"/>
<rect x="300" y="46" width="102" height="66" rx="24" fill="#FFFFFF" stroke="#14142B" stroke-width="4"/>
<path d="M318 109 L304 134 L338 111" fill="#FFFFFF" stroke="#14142B" stroke-width="4" stroke-linejoin="round"/>
<path d="M320 107 L336 107" stroke="#FFFFFF" stroke-width="5"/>
<text x="351" y="90" font-family="Arial" font-size="30" font-weight="bold" fill="#003478" text-anchor="middle">e · o</text><g transform="translate(5 6)" opacity="0.28" fill="#14142B" stroke="#14142B" stroke-width="18" stroke-linejoin="round" stroke-linecap="round"><path d="M46 350 L76 350 L114 318 L114 422 L76 390 L46 390 Z"/><circle cx="178" cy="302" r="21"/></g>
<g fill="#14142B" stroke="#14142B" stroke-width="18" stroke-linejoin="round" stroke-linecap="round"><path d="M46 350 L76 350 L114 318 L114 422 L76 390 L46 390 Z"/><circle cx="178" cy="302" r="21"/></g>
<g fill="#FFFFFF" stroke="#FFFFFF" stroke-width="12" stroke-linejoin="round" stroke-linecap="round"><path d="M46 350 L76 350 L114 318 L114 422 L76 390 L46 390 Z"/><circle cx="178" cy="302" r="21"/></g><path d="M46 350 L76 350 L114 318 L114 422 L76 390 L46 390 Z" fill="#4236F6" stroke="#14142B" stroke-width="4" stroke-linejoin="round"/>
<path d="M76 352 L76 388" stroke="#14142B" stroke-width="3.5" stroke-linecap="round"/>
<path d="M56 358 L56 372" stroke="#DCE0FA" stroke-width="4" stroke-linecap="round"/>
<path d="M130.38 351.62 A26 26 0 0 1 130.38 388.38" stroke="#14142B" stroke-width="11" stroke-linecap="round"/><path d="M130.38 351.62 A26 26 0 0 1 130.38 388.38" stroke="#9FD3F5" stroke-width="5" stroke-linecap="round"/>
<path d="M143.11 338.89 A44 44 0 0 1 143.11 401.11" stroke="#14142B" stroke-width="11" stroke-linecap="round"/><path d="M143.11 338.89 A44 44 0 0 1 143.11 401.11" stroke="#9FD3F5" stroke-width="5" stroke-linecap="round"/>
<path d="M155.84 326.16 A62 62 0 0 1 155.84 413.84" stroke="#14142B" stroke-width="11" stroke-linecap="round"/><path d="M155.84 326.16 A62 62 0 0 1 155.84 413.84" stroke="#9FD3F5" stroke-width="5" stroke-linecap="round"/>
<circle cx="178" cy="302" r="21" fill="#FFD95E" stroke="#14142B" stroke-width="3.5"/>
<text x="178" y="313" font-family="Arial" font-size="30" font-weight="bold" fill="#003478" text-anchor="middle">?</text><g transform="translate(5 6)" opacity="0.28" fill="#14142B" stroke="#14142B" stroke-width="18" stroke-linejoin="round" stroke-linecap="round"><rect x="238" y="300" width="70" height="130" rx="14"/><g transform="rotate(8 352 352)"><rect x="312" y="296" width="82" height="112" rx="6"/></g></g>
<g fill="#14142B" stroke="#14142B" stroke-width="18" stroke-linejoin="round" stroke-linecap="round"><rect x="238" y="300" width="70" height="130" rx="14"/><g transform="rotate(8 352 352)"><rect x="312" y="296" width="82" height="112" rx="6"/></g></g>
<g fill="#FFFFFF" stroke="#FFFFFF" stroke-width="12" stroke-linejoin="round" stroke-linecap="round"><rect x="238" y="300" width="70" height="130" rx="14"/><g transform="rotate(8 352 352)"><rect x="312" y="296" width="82" height="112" rx="6"/></g></g><rect x="238" y="300" width="70" height="130" rx="14" fill="#4236F6" stroke="#14142B" stroke-width="4"/>
<rect x="246" y="314" width="54" height="100" rx="6" fill="#DCE0FA" stroke="#14142B" stroke-width="3"/>
<rect x="251" y="322" width="36" height="17" rx="8.5" fill="#FFFFFF" stroke="#14142B" stroke-width="2.5"/>
<rect x="259" y="346" width="36" height="17" rx="8.5" fill="#FFD95E" stroke="#14142B" stroke-width="2.5"/>
<rect x="251" y="370" width="30" height="17" rx="8.5" fill="#FFFFFF" stroke="#14142B" stroke-width="2.5"/>
<path d="M258 330.5 L280 330.5 M266 354.5 L288 354.5 M258 378.5 L274 378.5" stroke="#B3B8D6" stroke-width="3" stroke-linecap="round"/>
<path d="M265 421 L281 421" stroke="#DCE0FA" stroke-width="3.5" stroke-linecap="round"/>
<g transform="rotate(8 352 352)">
<rect x="312" y="296" width="82" height="112" rx="6" fill="#FFFFFF" stroke="#14142B" stroke-width="4"/>
<rect x="322" y="308" width="52" height="7" rx="3.5" fill="#003478"/>
<circle cx="331" cy="332" r="5.5" fill="#FFFFFF" stroke="#14142B" stroke-width="2.5"/><circle cx="346" cy="332" r="5.5" fill="#4236F6" stroke="#14142B" stroke-width="2.5"/><circle cx="361" cy="332" r="5.5" fill="#FFFFFF" stroke="#14142B" stroke-width="2.5"/><circle cx="376" cy="332" r="5.5" fill="#FFFFFF" stroke="#14142B" stroke-width="2.5"/>
<circle cx="331" cy="356" r="5.5" fill="#FFFFFF" stroke="#14142B" stroke-width="2.5"/><circle cx="346" cy="356" r="5.5" fill="#FFFFFF" stroke="#14142B" stroke-width="2.5"/><circle cx="361" cy="356" r="5.5" fill="#FFFFFF" stroke="#14142B" stroke-width="2.5"/><circle cx="376" cy="356" r="5.5" fill="#4236F6" stroke="#14142B" stroke-width="2.5"/>
<circle cx="331" cy="380" r="5.5" fill="#4236F6" stroke="#14142B" stroke-width="2.5"/><circle cx="346" cy="380" r="5.5" fill="#FFFFFF" stroke="#14142B" stroke-width="2.5"/><circle cx="361" cy="380" r="5.5" fill="#FFFFFF" stroke="#14142B" stroke-width="2.5"/><circle cx="376" cy="380" r="5.5" fill="#FFFFFF" stroke="#14142B" stroke-width="2.5"/>
</g><circle cx="40" cy="42" r="18" fill="#4236F6" stroke="#14142B" stroke-width="3.5"/><text x="40" y="50" font-family="Arial" font-size="22" font-weight="bold" fill="#FFFFFF" text-anchor="middle">1</text>
<circle cx="246" cy="42" r="18" fill="#4236F6" stroke="#14142B" stroke-width="3.5"/><text x="246" y="50" font-family="Arial" font-size="22" font-weight="bold" fill="#FFFFFF" text-anchor="middle">2</text>
<circle cx="40" cy="282" r="18" fill="#4236F6" stroke="#14142B" stroke-width="3.5"/><text x="40" y="290" font-family="Arial" font-size="22" font-weight="bold" fill="#FFFFFF" text-anchor="middle">3</text>
<circle cx="246" cy="282" r="18" fill="#4236F6" stroke="#14142B" stroke-width="3.5"/><text x="246" y="290" font-family="Arial" font-size="22" font-weight="bold" fill="#FFFFFF" text-anchor="middle">4</text><path d="M182 33 Q184.2 41.8 193 44 Q184.2 46.2 182 55 Q179.8 46.2 171 44 Q179.8 41.8 182 33 Z" fill="#FFFFFF" stroke="#14142B" stroke-width="3" stroke-linejoin="round"/><path d="M186 442 Q188 450 196 452 Q188 454 186 462 Q184 454 176 452 Q184 450 186 442 Z" fill="#FFFFFF" stroke="#14142B" stroke-width="3" stroke-linejoin="round"/><path d="M394 442 Q396 450 404 452 Q396 454 394 462 Q392 454 384 452 Q392 450 394 442 Z" fill="#FFFFFF" stroke="#14142B" stroke-width="3" stroke-linejoin="round"/><circle cx="392" cy="278" r="6" fill="none" stroke="#14142B" stroke-width="3"/>
</svg>
