<svg xmlns="http://www.w3.org/2000/svg" viewBox="0 0 220 176" width="220" height="176" data-kr="네?" data-es="¿perdón? (para pedir que repitan)">
  <g fill="none" stroke="#F3F0E4" stroke-width="3" stroke-linecap="round" stroke-linejoin="round">
    <path d="M30 166 C 84 172, 150 172, 198 162" stroke-width="2.2" stroke-opacity="0.65"/>
    <!-- cuerpo -->
    <path d="M62 98 C 48 110, 42 138, 40 162 L 120 162 C 118 138, 112 110, 98 98 Z" fill="#1F3B33"/>
    <path d="M62 98 C 48 110, 42 138, 40 162 L 120 162 C 118 138, 112 110, 98 98 Z" fill="url(#rt)"/>
    <path d="M70 99 L80 112 L90 99" stroke-width="2.2"/>
    <path d="M56 114 C 46 126, 42 140, 44 152"/>
    <circle cx="44.5" cy="155" r="3.6" fill="#F3F0E4" stroke="none"/>
    <!-- brazo que sube hasta la oreja -->
    <path d="M104 112 C 124 112, 136 102, 130 88"/>
    <!-- cabeza un poco ladeada hacia la mano -->
    <g transform="rotate(8 80 100)">
      <!-- mano ahuecada detrás de la oreja -->
      <path d="M116 88 C 112 78, 112 62, 118 54 C 121 50, 126 50, 127 55 C 129 50, 134 51, 135 56 C 138 54, 142 57, 141 62 C 142 74, 138 86, 130 92 C 125 95, 119 93, 116 88 Z" fill="#1F3B33"/>
      <path d="M127 55 L 128 66 M135 56 L 135 68" stroke-width="1.8" stroke-opacity="0.75"/>
      <!-- oreja -->
      <path d="M108 64 C 116 60, 122 68, 120 76 C 119 83, 113 87, 108 84 Z" fill="#1F3B33"/>
      <path d="M111 70 C 115 70, 116 76, 112 78" stroke-width="2" stroke-opacity="0.8"/>
      <circle cx="80" cy="70" r="30" fill="#1F3B33"/>
      <path d="M50 68 C 49 48, 63 38, 80 38 C 98 38, 111 48, 110 68 C 107 60, 103 54, 97 52 C 87 55, 72 53, 65 46 C 61 54, 55 60, 50 68 Z" fill="url(#rd)" stroke="#E8B84B" stroke-width="2.4"/>
      <use href="#cara-sorpresa" transform="translate(80 78) scale(0.82)"/>
    </g>
    <!-- ondas de sonido que llegan a la oreja -->
    <path d="M150 72 Q 144 84 150 96 M160 66 Q 150 84 160 102" stroke-width="2.4" stroke-opacity="0.85"/>
    <!-- gran signo de pregunta dorado -->
    <path d="M168 42 C 168 22, 202 22, 202 40 C 202 52, 185 54, 185 66 V69" stroke="#E8B84B" stroke-width="4.5"/>
    <circle cx="185" cy="82" r="4.6" fill="#E8B84B" stroke="none"/>
    <!-- adornos -->
    <use href="#estrella-b" transform="translate(30 30) scale(0.65)"/>
    <use href="#estrella" transform="translate(186 136) scale(0.7)"/>
    <use href="#estrella-b" transform="translate(146 140) scale(0.55)"/>
  </g>
</svg>
