<svg xmlns="http://www.w3.org/2000/svg" viewBox="0 0 220 176" width="220" height="176" data-kr="아래" data-es="abajo, debajo">
  <g fill="none" stroke="#F3F0E4" stroke-width="3" stroke-linecap="round" stroke-linejoin="round">
    <path d="M46 165 C 92 172, 150 172, 188 161" stroke-width="2.2" stroke-opacity="0.65"/>
    <!-- patas de atrás de la mesa -->
    <path d="M80 92 H86 V150 H80 Z" fill="url(#rt)"/>
    <path d="M160 88 H166 V150 H160 Z" fill="url(#rt)"/>
    <!-- la pelotita dorada con cara, debajo de la mesa -->
    <circle cx="111" cy="141" r="20" fill="#1F3B33"/>
    <circle cx="111" cy="141" r="20" fill="url(#rd)" stroke="#E8B84B" stroke-width="2.6"/>
    <use href="#cara" transform="translate(111 139) scale(0.62)"/>
    <!-- tablero en perspectiva (misma proporción que la caja): tapa, canto y costado -->
    <path d="M66 92 L80 80 L168 80 L154 92 Z" fill="#1F3B33"/>
    <path d="M66 92 L80 80 L168 80 L154 92 Z" fill="url(#rt)"/>
    <path d="M66 92 H154 V100 H66 Z" fill="#1F3B33"/>
    <path d="M66 92 H154 V100 H66 Z" fill="url(#rt)"/>
    <path d="M154 92 L168 80 V88 L154 100 Z" fill="url(#rt)"/>
    <!-- patas de adelante -->
    <path d="M70 100 H77 V162 H70 Z" fill="#1F3B33"/>
    <path d="M70 100 H77 V162 H70 Z" fill="url(#rt)"/>
    <path d="M143 100 H150 V162 H143 Z" fill="#1F3B33"/>
    <path d="M143 100 H150 V162 H143 Z" fill="url(#rt)"/>
    <!-- flecha dorada hacia abajo -->
    <path d="M44 104 V154 M34 142 L44 154 L54 142" stroke="#E8B84B" stroke-width="3.2"/>
    <use href="#estrella-b" transform="translate(186 44) scale(0.7)"/>
    <use href="#estrella" transform="translate(40 50) scale(0.8)"/>
    <use href="#estrella" transform="translate(192 124) scale(0.65)"/>
  </g>
</svg>
