<svg xmlns="http://www.w3.org/2000/svg" viewBox="0 0 220 176" width="220" height="176" data-kr="안" data-es="dentro">
  <g fill="none" stroke="#F3F0E4" stroke-width="3" stroke-linecap="round" stroke-linejoin="round">
    <path d="M46 165 C 92 172, 150 172, 188 161" stroke-width="2.2" stroke-opacity="0.65"/>
    <!-- solapa de atrás, abierta -->
    <path d="M86 96 L162 96 L168 72 L92 72 Z" fill="#1F3B33"/>
    <path d="M86 96 L162 96 L168 72 L92 72 Z" fill="url(#rt)"/>
    <!-- boca de la caja (el hueco) -->
    <path d="M72 108 L86 96 L162 96 L148 108 Z" fill="#1F3B33"/>
    <!-- la pelotita dorada adentro -->
    <circle cx="112" cy="106" r="20" fill="#1F3B33"/>
    <circle cx="112" cy="106" r="20" fill="url(#rd)" stroke="#E8B84B" stroke-width="2.6"/>
    <use href="#cara" transform="translate(112 96) scale(0.62)"/>
    <!-- solapas laterales abiertas hacia afuera -->
    <path d="M72 108 L86 96 L64 78 L48 90 Z" fill="#1F3B33"/>
    <path d="M72 108 L86 96 L64 78 L48 90 Z" fill="url(#rt)"/>
    <path d="M148 108 L162 96 L190 104 L176 118 Z" fill="#1F3B33"/>
    <path d="M148 108 L162 96 L190 104 L176 118 Z" fill="url(#rt)"/>
    <!-- la caja de siempre: la cara frontal tapa la mitad de la pelotita -->
    <path d="M72 108 L148 108 L148 160 L72 160 Z" fill="#1F3B33"/>
    <path d="M72 108 L148 108 L148 160 L72 160 Z" fill="url(#rt)"/>
    <path d="M148 108 L162 96 L162 148 L148 160 Z" fill="#1F3B33"/>
    <path d="M148 108 L162 96 L162 148 L148 160 Z" fill="url(#rt)"/>
    <path d="M98 126 L122 150 M122 126 L98 150" stroke-width="2" stroke-opacity="0.6"/>
    <!-- flecha dorada curva que entra en la caja -->
    <path d="M38 52 C 54 30, 86 32, 96 62 M86.4 54.8 L96 62 L99.4 50.5" stroke="#E8B84B" stroke-width="3.2"/>
    <use href="#estrella-b" transform="translate(186 44) scale(0.7)"/>
    <use href="#estrella" transform="translate(34 132) scale(0.75)"/>
    <use href="#estrella" transform="translate(192 140) scale(0.6)"/>
  </g>
</svg>
