<svg xmlns="http://www.w3.org/2000/svg" viewBox="0 0 220 220" width="220" height="220" fill="none">
<!-- 동네 · barrio · Estilo A Sticker pop -->
<g transform="translate(6 7)" opacity="0.28" fill="#14142B" stroke="#14142B" stroke-width="24" stroke-linejoin="round" stroke-linecap="round">
<ellipse cx="108" cy="176" rx="88" ry="10"/>
<path d="M40 126 L60 102 L80 126 Z"/>
<rect x="46" y="124" width="28" height="52"/>
<path d="M16 134 L35 112 L54 134 Z"/>
<rect x="22" y="132" width="26" height="44"/>
<rect x="72" y="84" width="80" height="92" rx="3"/>
<path d="M147.8 126.8 A12 12 0 0 1 141.4 109.2 A13.6 13.6 0 0 1 155 91.6 A15.2 15.2 0 0 1 179 91.6 A13.6 13.6 0 0 1 192.6 109.2 A12 12 0 0 1 186.2 126.8 A48 48 0 0 1 147.8 126.8 Z"/>
<rect x="162" y="124" width="10" height="52"/>
</g>
<g fill="#14142B" stroke="#14142B" stroke-width="24" stroke-linejoin="round" stroke-linecap="round">
<ellipse cx="108" cy="176" rx="88" ry="10"/>
<path d="M40 126 L60 102 L80 126 Z"/>
<rect x="46" y="124" width="28" height="52"/>
<path d="M16 134 L35 112 L54 134 Z"/>
<rect x="22" y="132" width="26" height="44"/>
<rect x="72" y="84" width="80" height="92" rx="3"/>
<path d="M147.8 126.8 A12 12 0 0 1 141.4 109.2 A13.6 13.6 0 0 1 155 91.6 A15.2 15.2 0 0 1 179 91.6 A13.6 13.6 0 0 1 192.6 109.2 A12 12 0 0 1 186.2 126.8 A48 48 0 0 1 147.8 126.8 Z"/>
<rect x="162" y="124" width="10" height="52"/>
</g>
<g fill="#FFFFFF" stroke="#FFFFFF" stroke-width="17" stroke-linejoin="round" stroke-linecap="round">
<ellipse cx="108" cy="176" rx="88" ry="10"/>
<path d="M40 126 L60 102 L80 126 Z"/>
<rect x="46" y="124" width="28" height="52"/>
<path d="M16 134 L35 112 L54 134 Z"/>
<rect x="22" y="132" width="26" height="44"/>
<rect x="72" y="84" width="80" height="92" rx="3"/>
<path d="M147.8 126.8 A12 12 0 0 1 141.4 109.2 A13.6 13.6 0 0 1 155 91.6 A15.2 15.2 0 0 1 179 91.6 A13.6 13.6 0 0 1 192.6 109.2 A12 12 0 0 1 186.2 126.8 A48 48 0 0 1 147.8 126.8 Z"/>
<rect x="162" y="124" width="10" height="52"/>
</g>
<ellipse cx="108" cy="176" rx="88" ry="10" fill="#E3E6F2" stroke="#14142B" stroke-width="4"/>
<path d="M40 179 L52 179" fill="none" stroke="#8A8FA8" stroke-width="3" stroke-linecap="round" stroke-linejoin="round"/>
<path d="M120 181 L134 181" fill="none" stroke="#8A8FA8" stroke-width="3" stroke-linecap="round" stroke-linejoin="round"/>
<rect x="46" y="124" width="28" height="52" rx="0" fill="#E6F5FF" stroke="#14142B" stroke-width="4"/>
<path d="M40 126 L60 102 L80 126 Z" fill="#E8B84B" stroke="#14142B" stroke-width="4" stroke-linejoin="round" stroke-linecap="round"/>
<rect x="54" y="134" width="12" height="11" rx="2" fill="#9FD8FF" stroke="#14142B" stroke-width="3"/>
<rect x="54" y="154" width="12" height="22" rx="2" fill="#A0703F" stroke="#14142B" stroke-width="3"/>
<rect x="22" y="132" width="26" height="44" rx="0" fill="#FFF4D9" stroke="#14142B" stroke-width="4"/>
<path d="M16 134 L35 112 L54 134 Z" fill="#4236F6" stroke="#14142B" stroke-width="4" stroke-linejoin="round" stroke-linecap="round"/>
<rect x="29" y="142" width="12" height="12" rx="2" fill="#9FD8FF" stroke="#14142B" stroke-width="3"/>
<path d="M35 142 L35 154" fill="none" stroke="#14142B" stroke-width="2.5" stroke-linecap="round" stroke-linejoin="round"/>
<rect x="76" y="92" width="72" height="84" rx="0" fill="#ECE6FF" stroke="#14142B" stroke-width="4"/>
<rect x="72" y="84" width="80" height="12" rx="3" fill="#2A1FC7" stroke="#14142B" stroke-width="4"/>
<path d="M76 128 L88 128 L88 140 Q82 148 76 140 Z" fill="#4236F6"/>
<path d="M88 128 L100 128 L100 140 Q94 148 88 140 Z" fill="#FFFFFF"/>
<path d="M100 128 L112 128 L112 140 Q106 148 100 140 Z" fill="#4236F6"/>
<path d="M112 128 L124 128 L124 140 Q118 148 112 140 Z" fill="#FFFFFF"/>
<path d="M124 128 L136 128 L136 140 Q130 148 124 140 Z" fill="#4236F6"/>
<path d="M136 128 L148 128 L148 140 Q142 148 136 140 Z" fill="#FFFFFF"/>
<path d="M76 128 L148 128 L148 140 Q142 148 136 140 Q130 148 124 140 Q118 148 112 140 Q106 148 100 140 Q94 148 88 140 Q82 148 76 140 Z" fill="none" stroke="#14142B" stroke-width="4" stroke-linejoin="round" stroke-linecap="round"/>
<rect x="82" y="150" width="36" height="22" rx="3" fill="#9FD8FF" stroke="#14142B" stroke-width="4"/>
<path d="M84 162 L116 162" fill="none" stroke="#B3B8D6" stroke-width="3" stroke-linecap="round" stroke-linejoin="round"/>
<circle cx="92" cy="156" r="3.5" fill="#E8B84B" stroke="#14142B" stroke-width="2.5"/>
<rect x="100" y="151.5" width="6" height="9" rx="1.5" fill="#5CC98A" stroke="#14142B" stroke-width="2.5"/>
<circle cx="110" cy="157" r="3" fill="#F29B4E" stroke="#14142B" stroke-width="2.5"/>
<rect x="124" y="150" width="18" height="26" rx="2" fill="#A0703F" stroke="#14142B" stroke-width="4"/>
<circle cx="138" cy="164" r="1.8" fill="#E8B84B"/>
<ellipse cx="101.92" cy="108" rx="4.68" ry="6.12" fill="#14142B"/>
<ellipse cx="122.08" cy="108" rx="4.68" ry="6.12" fill="#14142B"/>
<circle cx="103.5" cy="105.55" r="1.73" fill="#FFFFFF"/>
<circle cx="123.66" cy="105.55" r="1.73" fill="#FFFFFF"/>
<ellipse cx="93.28" cy="118.08" rx="5.04" ry="3.24" fill="#FFB98A"/>
<ellipse cx="130.72" cy="118.08" rx="5.04" ry="3.24" fill="#FFB98A"/>
<path d="M106.24 117.36 Q112 126 117.76 117.36 Z" fill="#14142B" stroke="#14142B" stroke-width="2.16" stroke-linejoin="round"/>
<path d="M162 124 L162 176 L172 176 L172 124 Z" fill="#A86B3C" stroke="#14142B" stroke-width="4" stroke-linejoin="round" stroke-linecap="round"/>
<path d="M147.8 126.8 A12 12 0 0 1 141.4 109.2 A13.6 13.6 0 0 1 155 91.6 A15.2 15.2 0 0 1 179 91.6 A13.6 13.6 0 0 1 192.6 109.2 A12 12 0 0 1 186.2 126.8 A48 48 0 0 1 147.8 126.8 Z" fill="#5CC98A" stroke="#14142B" stroke-width="4" stroke-linejoin="round" stroke-linecap="round"/>
<path d="M146 106 Q148 98 156 95" fill="none" stroke="#B4F0C8" stroke-width="5" stroke-linecap="round" stroke-linejoin="round"/>
<path d="M186 28 Q188.4 37.6 198 40 Q188.4 42.4 186 52 Q183.6 42.4 174 40 Q183.6 37.6 186 28 Z" fill="#FFFFFF" stroke="#14142B" stroke-width="3" stroke-linejoin="round"/>
<path d="M28 67 Q29.8 74.2 37 76 Q29.8 77.8 28 85 Q26.2 77.8 19 76 Q26.2 74.2 28 67 Z" fill="#FFFFFF" stroke="#14142B" stroke-width="3" stroke-linejoin="round"/>
<circle cx="56" cy="44" r="6" fill="none" stroke="#14142B" stroke-width="3"/>
</svg>
