<svg xmlns="http://www.w3.org/2000/svg" viewBox="0 0 220 220" width="220" height="220" fill="none">
<!-- 어머니 · madre · Estilo A Sticker pop · mamá coreana de pelo corto ondulado, con delantal menta y los brazos abiertos -->
<g transform="translate(6 7)" opacity="0.28" fill="#14142B" stroke="#14142B" stroke-width="24" stroke-linejoin="round" stroke-linecap="round">
<path d="M68 170 L40 136" fill="none" stroke-width="48"/>
<path d="M152 170 L180 136" fill="none" stroke-width="48"/>
<ellipse cx="34" cy="126" rx="12" ry="13"/>
<ellipse cx="186" cy="126" rx="12" ry="13"/>
<ellipse cx="110" cy="80" rx="48" ry="38"/>
<circle cx="72" cy="62" r="20"/>
<circle cx="92" cy="46" r="20"/>
<circle cx="116" cy="42" r="21"/>
<circle cx="140" cy="50" r="20"/>
<circle cx="156" cy="70" r="18"/>
<circle cx="160" cy="94" r="15"/>
<circle cx="60" cy="84" r="17"/>
<circle cx="61" cy="106" r="13"/>
<circle cx="159" cy="112" r="12"/>
<ellipse cx="110" cy="90" rx="44" ry="42"/>
<path d="M50 196 C50 166 76 150 110 150 C144 150 170 166 170 196 Z"/>
</g>
<g fill="#14142B" stroke="#14142B" stroke-width="24" stroke-linejoin="round" stroke-linecap="round">
<path d="M68 170 L40 136" fill="none" stroke-width="48"/>
<path d="M152 170 L180 136" fill="none" stroke-width="48"/>
<ellipse cx="34" cy="126" rx="12" ry="13"/>
<ellipse cx="186" cy="126" rx="12" ry="13"/>
<ellipse cx="110" cy="80" rx="48" ry="38"/>
<circle cx="72" cy="62" r="20"/>
<circle cx="92" cy="46" r="20"/>
<circle cx="116" cy="42" r="21"/>
<circle cx="140" cy="50" r="20"/>
<circle cx="156" cy="70" r="18"/>
<circle cx="160" cy="94" r="15"/>
<circle cx="60" cy="84" r="17"/>
<circle cx="61" cy="106" r="13"/>
<circle cx="159" cy="112" r="12"/>
<ellipse cx="110" cy="90" rx="44" ry="42"/>
<path d="M50 196 C50 166 76 150 110 150 C144 150 170 166 170 196 Z"/>
</g>
<g fill="#FFFFFF" stroke="#FFFFFF" stroke-width="17" stroke-linejoin="round" stroke-linecap="round">
<path d="M68 170 L40 136" fill="none" stroke-width="41"/>
<path d="M152 170 L180 136" fill="none" stroke-width="41"/>
<ellipse cx="34" cy="126" rx="12" ry="13"/>
<ellipse cx="186" cy="126" rx="12" ry="13"/>
<ellipse cx="110" cy="80" rx="48" ry="38"/>
<circle cx="72" cy="62" r="20"/>
<circle cx="92" cy="46" r="20"/>
<circle cx="116" cy="42" r="21"/>
<circle cx="140" cy="50" r="20"/>
<circle cx="156" cy="70" r="18"/>
<circle cx="160" cy="94" r="15"/>
<circle cx="60" cy="84" r="17"/>
<circle cx="61" cy="106" r="13"/>
<circle cx="159" cy="112" r="12"/>
<ellipse cx="110" cy="90" rx="44" ry="42"/>
<path d="M50 196 C50 166 76 150 110 150 C144 150 170 166 170 196 Z"/>
</g>
<!-- brazos abiertos (mangas azules) y manos -->
<path d="M68 170 L40 136" stroke="#14142B" stroke-width="28" stroke-linecap="round"/>
<path d="M68 170 L40 136" stroke="#4236F6" stroke-width="20" stroke-linecap="round"/>
<path d="M152 170 L180 136" stroke="#14142B" stroke-width="28" stroke-linecap="round"/>
<path d="M152 170 L180 136" stroke="#4236F6" stroke-width="20" stroke-linecap="round"/>
<ellipse cx="34" cy="126" rx="12" ry="13" fill="#FFE0C4" stroke="#14142B" stroke-width="4"/>
<ellipse cx="186" cy="126" rx="12" ry="13" fill="#FFE0C4" stroke="#14142B" stroke-width="4"/>
<path d="M27 119 L27 126" stroke="#14142B" stroke-width="2.5" stroke-linecap="round"/>
<path d="M193 119 L193 126" stroke="#14142B" stroke-width="2.5" stroke-linecap="round"/>
<!-- pelo corto ondulado (permanente), negro: piezas de atrás -->
<g fill="#14142B" stroke="#14142B" stroke-width="4">
<ellipse cx="110" cy="80" rx="48" ry="38"/>
<circle cx="72" cy="62" r="20"/>
<circle cx="92" cy="46" r="20"/>
<circle cx="116" cy="42" r="21"/>
<circle cx="140" cy="50" r="20"/>
<circle cx="156" cy="70" r="18"/>
<circle cx="160" cy="94" r="15"/>
<circle cx="60" cy="84" r="17"/>
<circle cx="61" cy="106" r="13"/>
<circle cx="159" cy="112" r="12"/>
</g>
<!-- torso: blusa azul, cuello de piel, delantal menta con tirantes y bolsillo -->
<path d="M50 196 C50 166 76 150 110 150 C144 150 170 166 170 196 Z" fill="#4236F6" stroke="#14142B" stroke-width="4" stroke-linejoin="round"/>
<path d="M98 126 L98 152 Q110 160 122 152 L122 126 Z" fill="#FFE0C4" stroke="#14142B" stroke-width="4" stroke-linejoin="round"/>
<path d="M93 163 L99 151" stroke="#14142B" stroke-width="10" stroke-linecap="round"/>
<path d="M93 163 L99 151" stroke="#8FE3C6" stroke-width="4" stroke-linecap="round"/>
<path d="M127 163 L121 151" stroke="#14142B" stroke-width="10" stroke-linecap="round"/>
<path d="M127 163 L121 151" stroke="#8FE3C6" stroke-width="4" stroke-linecap="round"/>
<path d="M86 196 L88 168 Q88 162 94 162 L126 162 Q132 162 132 168 L134 196 Z" fill="#8FE3C6" stroke="#14142B" stroke-width="4" stroke-linejoin="round"/>
<rect x="100" y="176" width="20" height="13" rx="3" fill="#6FCFAE" stroke="#14142B" stroke-width="3"/>
<!-- cabeza -->
<ellipse cx="110" cy="90" rx="44" ry="42" fill="#FFE0C4" stroke="#14142B" stroke-width="4"/>
<!-- flequillo ondulado: relleno sin borde + canto de abajo -->
<path d="M64 96 C60 62 84 44 110 44 C136 44 160 62 156 96 Q153 85 146 82 Q141 72 131 74 Q122 66 112 72 Q102 66 94 74 Q84 72 79 81 Q68 83 64 96 Z" fill="#14142B"/>
<path d="M156 96 Q153 85 146 82 Q141 72 131 74 Q122 66 112 72 Q102 66 94 74 Q84 72 79 81 Q68 83 64 96" stroke="#14142B" stroke-width="4" stroke-linecap="round" stroke-linejoin="round"/>
<!-- rizos (brillo) -->
<path d="M72 56 Q78 49 87 51" stroke="#5E6280" stroke-width="4" stroke-linecap="round"/>
<path d="M104 35 Q112 31 121 35" stroke="#5E6280" stroke-width="4" stroke-linecap="round"/>
<path d="M140 42 Q149 44 152 53" stroke="#5E6280" stroke-width="4" stroke-linecap="round"/>
<path d="M54 82 Q56 75 63 73" stroke="#5E6280" stroke-width="4" stroke-linecap="round"/>
<path d="M163 88 Q167 95 165 102" stroke="#5E6280" stroke-width="4" stroke-linecap="round"/>
<!-- cara de la casa en (110,102), s = 0,85 -->
<ellipse cx="98.1" cy="102" rx="5.53" ry="7.23" fill="#14142B"/>
<ellipse cx="121.9" cy="102" rx="5.53" ry="7.23" fill="#14142B"/>
<circle cx="99.97" cy="99.11" r="2.04" fill="#FFFFFF"/>
<circle cx="123.77" cy="99.11" r="2.04" fill="#FFFFFF"/>
<ellipse cx="87.9" cy="113.9" rx="5.95" ry="3.83" fill="#FFB98A"/>
<ellipse cx="132.1" cy="113.9" rx="5.95" ry="3.83" fill="#FFB98A"/>
<path d="M103.2 113.05 Q110 123.25 116.8 113.05 Z" fill="#14142B" stroke="#14142B" stroke-width="2.55" stroke-linejoin="round"/>
<!-- adornos -->
<path d="M30 20 Q32.4 29.6 42 32 Q32.4 34.4 30 44 Q27.6 34.4 18 32 Q27.6 29.6 30 20 Z" fill="#FFFFFF" stroke="#14142B" stroke-width="3" stroke-linejoin="round"/>
<path d="M26 177 Q27.8 184.2 35 186 Q27.8 187.8 26 195 Q24.2 187.8 17 186 Q24.2 184.2 26 177 Z" fill="#FFFFFF" stroke="#14142B" stroke-width="3" stroke-linejoin="round"/>
<circle cx="192" cy="30" r="6" fill="none" stroke="#14142B" stroke-width="3"/>
</svg>
